<svg width="3139" height="2289" viewBox="0 0 3139 2289" fill="none" xmlns="http://www.w3.org/2000/svg">
<path d="M2010.52 148.269L3136.02 1947.77C3164.79 2218.44 2860.29 2316.44 2723.79 2176.94L2201.79 1333C2168.62 1305 1695.58 1342 1140.78 1342C1140.78 1342 1507.22 952.032 1080.38 1377.87L365.019 2247.5C210.852 2328.83 -32.2163 2303 4.77915 2020L381.277 1460.5C393.277 1438.83 448.377 1396.9 572.777 1402.5C645.944 1400 804.577 1375.5 853.777 1297.5C902.977 1219.5 1309.28 498.846 1506.28 148.269C1609.78 -43.058 1899.29 -53.0578 2010.52 148.269Z" fill="white" stroke="white" stroke-width="2"/>
</svg>
